<?xml version="1.0" standalone="no"?>
<!DOCTYPE svg PUBLIC "-//W3C//DTD SVG 20010904//EN"
 "http://www.w3.org/TR/2001/REC-SVG-20010904/DTD/svg10.dtd">
<svg version="1.0" xmlns="http://www.w3.org/2000/svg"
 width="48" height="29" fill="#fff" viewBox="0 0 48 29"
 preserveAspectRatio="xMidYMid meet">

<g transform="translate(0.000000,1080.000000) scale(0.100000,-0.100000)"
fill="#ffffff" stroke="none">
<path d="M4930 9004 c-19 -2 -79 -9 -132 -15 -273 -29 -584 -144 -823 -304
-388 -259 -644 -631 -741 -1075 -16 -70 -19 -127 -18 -320 0 -205 3 -249 23
-340 133 -620 537 -994 1426 -1320 121 -44 215 -74 615 -196 568 -172 1146
-447 1445 -687 77 -62 192 -176 239 -237 111 -142 139 -278 82 -389 -25 -48
-115 -128 -184 -162 -62 -32 -74 -34 -162 -34 -89 0 -100 2 -163 35 -147 74
-239 163 -572 550 -348 403 -565 598 -802 721 -198 104 -345 139 -578 139
-612 0 -1048 -310 -1248 -886 -78 -223 -117 -479 -117 -760 0 -157 13 -353 26
-397 5 -16 16 -17 92 -15 l87 3 6 97 c23 343 148 481 449 495 174 9 281 -30
620 -226 595 -343 938 -447 1362 -411 852 71 1529 642 1700 1433 30 139 32
438 4 567 -61 279 -188 503 -410 725 -195 195 -405 341 -711 495 -297 150
-550 245 -1040 391 -431 129 -698 232 -985 380 -291 151 -522 323 -639 479
-78 104 -105 173 -105 270 0 94 20 136 103 213 158 145 329 165 498 55 85 -55
245 -223 393 -414 68 -87 158 -202 200 -254 434 -537 807 -739 1294 -700 223
18 367 56 537 141 437 218 684 677 729 1351 10 157 2 438 -16 536 l-6 32 -93
0 -92 0 -6 -102 c-7 -107 -34 -233 -63 -290 -70 -139 -208 -207 -417 -208
-155 0 -251 41 -580 247 -350 220 -562 314 -809 362 -99 19 -344 34 -418 25z"/>
</g>
</svg>
